<?xml version="1.0" encoding="utf-8"?>
<!-- Generator: Adobe Illustrator 16.0.0, SVG Export Plug-In . SVG Version: 6.00 Build 0)  -->
<!DOCTYPE svg PUBLIC "-//W3C//DTD SVG 1.1//EN" "http://www.w3.org/Graphics/SVG/1.1/DTD/svg11.dtd">
<svg version="1.1" id="Colorized" xmlns="http://www.w3.org/2000/svg" xmlns:xlink="http://www.w3.org/1999/xlink" x="0px" y="0px"
	 width="662px" height="602.223px" viewBox="0 0 662 602.223" enable-background="new 0 0 662 602.223" xml:space="preserve">
<path fill="#7DBD96" d="M248.917,293.004c0.017,2.487,0.085,4.972,0.225,7.441c0.565,9.987,1.937,20.389,6.321,29.505
	c5.653,11.755,15.505,18.745,27.36,22.177c-5.874-12.779-11.817-26.053-14.858-33.669
	C262.927,305.838,259.443,293.254,248.917,293.004z"/>
<path fill="#7DBD96" d="M280.053,260.459c1.782-1.988,2.699-3.967,2.979-5.031c1.648-6.283-5.533-6.764-10.283-7.312
	c0.008-1.008,0.025-1.449,0.025-1.449h34.781c0,0,0.032,0.793-0.024,1.399c-3.874,0.246-11.677,2.683-14.983,4.764
	c-6.08,3.828-15.618,13.056-24.243,21.314c-8.203,7.854-15.609,14.81-17.375,16.252c4.234-2.357,17.354-3.756,29.762-3.437
	s36.258,9.733,49.771,28.144c4.759,6.483,11.619,20.044,20.129,34.697c3.403-1.49,6.604-3.378,9.487-5.775
	c14.861-12.355,17.186-33.264,17.271-51.37c-0.096-20.917-3.524-46.207-23.717-57.446c-6.539-3.64-13.799-5.696-21.171-6.819
	c-4.385-0.668-8.8-1.108-13.23-1.34c-1.659-0.087-3.319-0.148-4.979-0.205c-2.748,0.085-5.495,0.199-8.236,0.4
	c-8.116,0.595-16.395,1.69-24.103,4.411c-15.605,5.509-25.875,17.504-29.922,33.508c-1.992,7.875-2.889,16.044-3.05,24.205
	C253.759,285.223,272.163,269.249,280.053,260.459z"/>
<path fill="#7DBD96" d="M327.833,71.574L86.976,312.43l240.857,240.857L568.69,312.43L327.833,71.574z M406.982,412.339
	c-74.536,19.068-104.33-18.599-109.301-28.653c-2.314-4.682-7.563-15.754-13.141-27.83c-6.39-0.05-12.776-0.188-19.146-0.533
	c-14.484-0.785-30.897-2.736-41.687-13.539c-14.03-14.047-15.505-36.728-14.631-55.424c0.826-17.659,4.86-37.571,20.312-48.382
	c13.119-9.178,29.934-10.694,45.484-11.225c27.479-0.939,55.472-1.391,82.932,0.191c14.731,0.849,31.291,2.798,42.701,13.174
	c14.431,13.121,16.761,34.126,16.846,52.538c-0.09,18.835-2.719,42.009-19.956,53.356c-12.575,8.279-28.395,9.368-43.36,9.612
	c3.328,5.525,6.877,11.094,10.625,16.396c14.094,19.938,29.141,34.032,45.209,34.7c7.127,0.296,16.996-3.306,25.293-7.982
	c15.352-8.656,28.844-21.86,35.366-36.757c0.55-1.256,0.898-2.305,1.306-3.856c0.93-3.542,1.166-10.979-2.348-7.43
	c-4.465,4.083-10.407,6.575-16.936,6.575c-13.869,0-25.111-11.243-25.111-25.112s11.242-25.112,25.111-25.112
	c11.918,0,21.891,8.305,24.463,19.441c0.002,0.006,0.007,0.006,0.009,0.012c1.763,5.119,2.2,19.98-4.918,36.21
	C463.78,381.689,445.169,402.569,406.982,412.339z"/>
<rect x="152.253" y="136.911" transform="matrix(0.7071 -0.7071 0.7071 0.7071 -125.0059 323.2794)" fill="none" stroke="#7DBD96" stroke-miterlimit="10" width="350.954" height="351.247"/>
</svg>
